<?xml version="1.0" encoding="utf-8"?>
<!-- Generator: Adobe Illustrator 20.0.0, SVG Export Plug-In . SVG Version: 6.00 Build 0)  -->
<svg version="1.1" id="图层_1" xmlns="http://www.w3.org/2000/svg" xmlns:xlink="http://www.w3.org/1999/xlink" x="0px" y="0px"
	 viewBox="0 0 1024 1024" style="enable-background:new 0 0 1024 1024;" xml:space="preserve">
<style type="text/css">
	.st0{fill:#323232;}
</style>
<path class="st0" d="M107.6,487.1h808.7c24.2,0,43.7,11.1,43.7,24.9c0,13.7-19.5,24.9-43.7,24.9H107.6C83.5,536.9,64,525.7,64,512
	C64,498.3,83.5,487.1,107.6,487.1L107.6,487.1z M107.6,487.1"/>
<path class="st0" d="M487.1,916.3V107.6c0-24.2,11.1-43.7,24.9-43.7c13.7,0,24.9,19.5,24.9,43.7v808.7c0,24.2-11.1,43.7-24.9,43.7
	C498.3,959.9,487.1,940.4,487.1,916.3L487.1,916.3z M487.1,916.3"/>
</svg>
